<?xml version="1.0" encoding="UTF-8" standalone="no"?><!-- Generator: Gravit.io --><svg xmlns="http://www.w3.org/2000/svg" xmlns:xlink="http://www.w3.org/1999/xlink" style="isolation:isolate" viewBox="0 0 72 72" width="72pt" height="72pt"><g><path d=" M 61.456 10.544 C 54.656 3.745 45.616 0 36 0 C 26.384 0 17.344 3.745 10.544 10.544 C 3.745 17.344 0 26.384 0 36 C 0 45.616 3.745 54.656 10.544 61.456 C 17.344 68.255 26.384 72 36 72 C 45.616 72 54.656 68.255 61.456 61.456 C 68.255 54.656 72 45.616 72 36 C 72 26.384 68.255 17.344 61.456 10.544 Z  M 36 67.546 C 18.605 67.546 4.454 53.395 4.454 36 C 4.454 18.605 18.605 4.454 36 4.454 C 53.395 4.454 67.546 18.605 67.546 36 C 67.546 53.395 53.395 67.546 36 67.546 Z " fill="rgb(0,0,255)"/><path d=" M 32.924 29.017 L 20.834 22.034 L 20.834 49.966 L 32.924 42.983 L 32.924 49.966 L 57.104 36 L 32.924 22.034 L 32.924 29.017 Z " fill="rgb(0,0,255)"/></g></svg>