<?xml version="1.0" encoding="UTF-8" standalone="no"?><!-- Generator: Gravit.io --><svg xmlns="http://www.w3.org/2000/svg" xmlns:xlink="http://www.w3.org/1999/xlink" style="isolation:isolate" viewBox="0 3.24 72 72" width="72pt" height="72pt"><g><path d=" M 61.456 13.784 C 54.656 6.985 45.616 3.24 36 3.24 C 26.384 3.24 17.344 6.985 10.544 13.784 C 3.745 20.584 0 29.624 0 39.24 C 0 48.856 3.745 57.896 10.544 64.696 C 17.344 71.495 26.384 75.24 36 75.24 C 45.616 75.24 54.656 71.495 61.456 64.696 C 68.255 57.896 72 48.856 72 39.24 C 72 29.624 68.255 20.584 61.456 13.784 Z  M 36 70.786 C 18.605 70.786 4.454 56.635 4.454 39.24 C 4.454 21.845 18.605 7.694 36 7.694 C 53.395 7.694 67.546 21.845 67.546 39.24 C 67.546 56.635 53.395 70.786 36 70.786 Z " fill="rgb(255,221,2)"/><path d=" M 47.03 35.749 L 28.895 25.274 L 28.895 32.257 L 16.805 25.274 L 16.805 53.206 L 28.895 46.223 L 28.895 53.206 L 47.03 42.731 L 47.03 54.456 L 55.195 54.456 L 55.195 24.024 L 47.03 24.024 L 47.03 35.749 Z " fill="rgb(255,221,2)"/></g></svg>