<?xml version="1.0" encoding="UTF-8" standalone="no"?><!-- Generator: Gravit.io --><svg xmlns="http://www.w3.org/2000/svg" xmlns:xlink="http://www.w3.org/1999/xlink" style="isolation:isolate" viewBox="0 3.24 72 72" width="72pt" height="72pt"><g><path d=" M 10.544 13.784 C 17.344 6.985 26.384 3.24 36 3.24 C 45.616 3.24 54.656 6.985 61.456 13.784 C 68.255 20.584 72 29.624 72 39.24 C 72 48.856 68.255 57.896 61.456 64.696 C 54.656 71.495 45.616 75.24 36 75.24 C 26.384 75.24 17.344 71.495 10.544 64.696 C 3.745 57.896 0 48.856 0 39.24 C 0 29.624 3.745 20.584 10.544 13.784 Z  M 36 70.786 C 53.395 70.786 67.546 56.635 67.546 39.24 C 67.546 21.845 53.395 7.694 36 7.694 C 18.605 7.694 4.454 21.845 4.454 39.24 C 4.454 56.635 18.605 70.786 36 70.786 Z " fill="rgb(255,221,2)"/><path d=" M 24.97 35.749 L 43.105 25.274 L 43.105 32.257 L 55.195 25.274 L 55.195 53.206 L 43.105 46.223 L 43.105 53.206 L 24.97 42.731 L 24.97 54.456 L 16.805 54.456 L 16.805 24.024 L 24.97 24.024 L 24.97 35.749 Z " fill="rgb(255,221,2)"/></g></svg>