<?xml version="1.0" encoding="UTF-8" standalone="no"?><!-- Generator: Gravit.io --><svg xmlns="http://www.w3.org/2000/svg" xmlns:xlink="http://www.w3.org/1999/xlink" style="isolation:isolate" viewBox="0 0 72 78.48" width="72pt" height="78.48pt"><defs><clipPath id="_clipPath_xtZniT3g7K9FowgSXUzFpT4qGomh9m7I"><rect width="72" height="78.48"/></clipPath></defs><g clip-path="url(#_clipPath_xtZniT3g7K9FowgSXUzFpT4qGomh9m7I)"><rect width="72" height="78.48" style="fill:rgb(0,0,0)" fill-opacity="0"/><g><path d=" M 10.544 13.784 C 17.344 6.985 26.384 3.24 36 3.24 C 45.616 3.24 54.656 6.985 61.456 13.784 C 68.255 20.584 72 29.624 72 39.24 C 72 48.856 68.255 57.896 61.456 64.696 C 54.656 71.495 45.616 75.24 36 75.24 C 26.384 75.24 17.344 71.495 10.544 64.696 C 3.745 57.896 0 48.856 0 39.24 C 0 29.624 3.745 20.584 10.544 13.784 Z  M 36 70.786 C 53.395 70.786 67.546 56.635 67.546 39.24 C 67.546 21.845 53.395 7.694 36 7.694 C 18.605 7.694 4.454 21.845 4.454 39.24 C 4.454 56.635 18.605 70.786 36 70.786 Z " fill="rgb(0,0,255)"/><path d=" M 39.076 32.257 L 51.166 25.274 L 51.166 53.206 L 39.076 46.223 L 39.076 53.206 L 14.896 39.24 L 39.076 25.274 L 39.076 32.257 Z " fill="rgb(0,0,255)"/></g></g></svg>